<svg width="272" height="16" viewBox="0 0 272 16" fill="none" xmlns="http://www.w3.org/2000/svg">
<path d="M5.72656 0.625V12H3.78125V0.625H5.72656ZM9.29688 0.625V2.1875H0.242188V0.625H9.29688ZM12.4844 10.125L14.4375 3.54688H15.6406L15.3125 5.51562L13.3438 12H12.2656L12.4844 10.125ZM11.3359 3.54688L12.8594 10.1562L12.9844 12H11.7812L9.49219 3.54688H11.3359ZM17.4688 10.0781L18.9453 3.54688H20.7812L18.5 12H17.2969L17.4688 10.0781ZM15.8438 3.54688L17.7734 10.0469L18.0156 12H16.9375L14.9453 5.50781L14.6172 3.54688H15.8438ZM24.0781 3.54688V12H22.1875V3.54688H24.0781ZM22.0625 1.32812C22.0625 1.04167 22.1562 0.804688 22.3438 0.617188C22.5365 0.424479 22.8021 0.328125 23.1406 0.328125C23.474 0.328125 23.737 0.424479 23.9297 0.617188C24.1224 0.804688 24.2188 1.04167 24.2188 1.32812C24.2188 1.60938 24.1224 1.84375 23.9297 2.03125C23.737 2.21875 23.474 2.3125 23.1406 2.3125C22.8021 2.3125 22.5365 2.21875 22.3438 2.03125C22.1562 1.84375 22.0625 1.60938 22.0625 1.32812ZM30.0156 3.54688V4.92188H25.25V3.54688H30.0156ZM26.625 1.47656H28.5078V9.66406C28.5078 9.92448 28.5443 10.125 28.6172 10.2656C28.6953 10.401 28.8021 10.4922 28.9375 10.5391C29.0729 10.5859 29.2318 10.6094 29.4141 10.6094C29.5443 10.6094 29.6693 10.6016 29.7891 10.5859C29.9089 10.5703 30.0052 10.5547 30.0781 10.5391L30.0859 11.9766C29.9297 12.0234 29.7474 12.0651 29.5391 12.1016C29.3359 12.138 29.1016 12.1562 28.8359 12.1562C28.4036 12.1562 28.0208 12.0807 27.6875 11.9297C27.3542 11.7734 27.0938 11.5208 26.9062 11.1719C26.7188 10.8229 26.625 10.3594 26.625 9.78125V1.47656ZM35.3438 3.54688V4.92188H30.5781V3.54688H35.3438ZM31.9531 1.47656H33.8359V9.66406C33.8359 9.92448 33.8724 10.125 33.9453 10.2656C34.0234 10.401 34.1302 10.4922 34.2656 10.5391C34.401 10.5859 34.5599 10.6094 34.7422 10.6094C34.8724 10.6094 34.9974 10.6016 35.1172 10.5859C35.237 10.5703 35.3333 10.5547 35.4062 10.5391L35.4141 11.9766C35.2578 12.0234 35.0755 12.0651 34.8672 12.1016C34.6641 12.138 34.4297 12.1562 34.1641 12.1562C33.7318 12.1562 33.349 12.0807 33.0156 11.9297C32.6823 11.7734 32.4219 11.5208 32.2344 11.1719C32.0469 10.8229 31.9531 10.3594 31.9531 9.78125V1.47656ZM40.5234 12.1562C39.8984 12.1562 39.3333 12.0547 38.8281 11.8516C38.3281 11.6432 37.901 11.3542 37.5469 10.9844C37.1979 10.6146 36.9297 10.1797 36.7422 9.67969C36.5547 9.17969 36.4609 8.64062 36.4609 8.0625V7.75C36.4609 7.08854 36.5573 6.48958 36.75 5.95312C36.9427 5.41667 37.2109 4.95833 37.5547 4.57812C37.8984 4.19271 38.3047 3.89844 38.7734 3.69531C39.2422 3.49219 39.75 3.39062 40.2969 3.39062C40.901 3.39062 41.4297 3.49219 41.8828 3.69531C42.3359 3.89844 42.7109 4.1849 43.0078 4.55469C43.3099 4.91927 43.5339 5.35417 43.6797 5.85938C43.8307 6.36458 43.9062 6.92188 43.9062 7.53125V8.33594H37.375V6.98438H42.0469V6.83594C42.0365 6.4974 41.9688 6.17969 41.8438 5.88281C41.724 5.58594 41.5391 5.34635 41.2891 5.16406C41.0391 4.98177 40.7057 4.89062 40.2891 4.89062C39.9766 4.89062 39.6979 4.95833 39.4531 5.09375C39.2135 5.22396 39.013 5.41406 38.8516 5.66406C38.6901 5.91406 38.5651 6.21615 38.4766 6.57031C38.3932 6.91927 38.3516 7.3125 38.3516 7.75V8.0625C38.3516 8.43229 38.401 8.77604 38.5 9.09375C38.6042 9.40625 38.7552 9.67969 38.9531 9.91406C39.151 10.1484 39.3906 10.3333 39.6719 10.4688C39.9531 10.599 40.2734 10.6641 40.6328 10.6641C41.0859 10.6641 41.4896 10.5729 41.8438 10.3906C42.1979 10.2083 42.5052 9.95052 42.7656 9.61719L43.7578 10.5781C43.5755 10.8438 43.3385 11.099 43.0469 11.3438C42.7552 11.5833 42.3984 11.7786 41.9766 11.9297C41.5599 12.0807 41.0755 12.1562 40.5234 12.1562ZM47.2656 5.15625V12H45.3828V3.54688H47.1797L47.2656 5.15625ZM49.8516 3.49219L49.8359 5.24219C49.7214 5.22135 49.5964 5.20573 49.4609 5.19531C49.3307 5.1849 49.2005 5.17969 49.0703 5.17969C48.7474 5.17969 48.4635 5.22656 48.2188 5.32031C47.974 5.40885 47.7682 5.53906 47.6016 5.71094C47.4401 5.8776 47.3151 6.08073 47.2266 6.32031C47.138 6.5599 47.0859 6.82812 47.0703 7.125L46.6406 7.15625C46.6406 6.625 46.6927 6.13281 46.7969 5.67969C46.901 5.22656 47.0573 4.82812 47.2656 4.48438C47.4792 4.14062 47.7448 3.8724 48.0625 3.67969C48.3854 3.48698 48.7578 3.39062 49.1797 3.39062C49.2943 3.39062 49.4167 3.40104 49.5469 3.42188C49.6823 3.44271 49.7839 3.46615 49.8516 3.49219ZM93.1562 0.625V12H91.1953V0.625H93.1562ZM97.2734 5.35156V12H95.3906V3.54688H97.1641L97.2734 5.35156ZM96.9375 7.46094L96.3281 7.45312C96.3333 6.85417 96.4167 6.30469 96.5781 5.80469C96.7448 5.30469 96.974 4.875 97.2656 4.51562C97.5625 4.15625 97.9167 3.88021 98.3281 3.6875C98.7396 3.48958 99.1979 3.39062 99.7031 3.39062C100.109 3.39062 100.477 3.44792 100.805 3.5625C101.138 3.67188 101.422 3.85156 101.656 4.10156C101.896 4.35156 102.078 4.67708 102.203 5.07812C102.328 5.47396 102.391 5.96094 102.391 6.53906V12H100.5V6.53125C100.5 6.125 100.44 5.80469 100.32 5.57031C100.206 5.33073 100.036 5.16146 99.8125 5.0625C99.5938 4.95833 99.3203 4.90625 98.9922 4.90625C98.6693 4.90625 98.3802 4.97396 98.125 5.10938C97.8698 5.24479 97.6536 5.42969 97.4766 5.66406C97.3047 5.89844 97.1719 6.16927 97.0781 6.47656C96.9844 6.78385 96.9375 7.11198 96.9375 7.46094ZM109.055 9.71094C109.055 9.52344 109.008 9.35417 108.914 9.20312C108.82 9.04688 108.641 8.90625 108.375 8.78125C108.115 8.65625 107.729 8.54167 107.219 8.4375C106.771 8.33854 106.359 8.22135 105.984 8.08594C105.615 7.94531 105.297 7.77604 105.031 7.57812C104.766 7.38021 104.56 7.14583 104.414 6.875C104.268 6.60417 104.195 6.29167 104.195 5.9375C104.195 5.59375 104.271 5.26823 104.422 4.96094C104.573 4.65365 104.789 4.38281 105.07 4.14844C105.352 3.91406 105.693 3.72917 106.094 3.59375C106.5 3.45833 106.953 3.39062 107.453 3.39062C108.161 3.39062 108.768 3.51042 109.273 3.75C109.784 3.98438 110.174 4.30469 110.445 4.71094C110.716 5.11198 110.852 5.5651 110.852 6.07031H108.969C108.969 5.84635 108.911 5.63802 108.797 5.44531C108.688 5.2474 108.521 5.08854 108.297 4.96875C108.073 4.84375 107.792 4.78125 107.453 4.78125C107.13 4.78125 106.862 4.83333 106.648 4.9375C106.44 5.03646 106.284 5.16667 106.18 5.32812C106.081 5.48958 106.031 5.66667 106.031 5.85938C106.031 6 106.057 6.1276 106.109 6.24219C106.167 6.35156 106.26 6.45312 106.391 6.54688C106.521 6.63542 106.698 6.71875 106.922 6.79688C107.151 6.875 107.438 6.95052 107.781 7.02344C108.427 7.15885 108.982 7.33333 109.445 7.54688C109.914 7.75521 110.273 8.02604 110.523 8.35938C110.773 8.6875 110.898 9.10417 110.898 9.60938C110.898 9.98438 110.818 10.3281 110.656 10.6406C110.5 10.9479 110.271 11.2161 109.969 11.4453C109.667 11.6693 109.305 11.8438 108.883 11.9688C108.466 12.0938 107.997 12.1562 107.477 12.1562C106.711 12.1562 106.062 12.0208 105.531 11.75C105 11.474 104.596 11.1224 104.32 10.6953C104.049 10.263 103.914 9.8151 103.914 9.35156H105.734C105.755 9.70052 105.852 9.97917 106.023 10.1875C106.201 10.3906 106.419 10.5391 106.68 10.6328C106.945 10.7214 107.219 10.7656 107.5 10.7656C107.839 10.7656 108.122 10.7214 108.352 10.6328C108.581 10.5391 108.755 10.4141 108.875 10.2578C108.995 10.0964 109.055 9.91406 109.055 9.71094ZM116.422 3.54688V4.92188H111.656V3.54688H116.422ZM113.031 1.47656H114.914V9.66406C114.914 9.92448 114.951 10.125 115.023 10.2656C115.102 10.401 115.208 10.4922 115.344 10.5391C115.479 10.5859 115.638 10.6094 115.82 10.6094C115.951 10.6094 116.076 10.6016 116.195 10.5859C116.315 10.5703 116.411 10.5547 116.484 10.5391L116.492 11.9766C116.336 12.0234 116.154 12.0651 115.945 12.1016C115.742 12.138 115.508 12.1562 115.242 12.1562C114.81 12.1562 114.427 12.0807 114.094 11.9297C113.76 11.7734 113.5 11.5208 113.312 11.1719C113.125 10.8229 113.031 10.3594 113.031 9.78125V1.47656ZM122.641 10.3047V6.27344C122.641 5.97135 122.586 5.71094 122.477 5.49219C122.367 5.27344 122.201 5.10417 121.977 4.98438C121.758 4.86458 121.482 4.80469 121.148 4.80469C120.841 4.80469 120.576 4.85677 120.352 4.96094C120.128 5.0651 119.953 5.20573 119.828 5.38281C119.703 5.5599 119.641 5.76042 119.641 5.98438H117.766C117.766 5.65104 117.846 5.32812 118.008 5.01562C118.169 4.70312 118.404 4.42448 118.711 4.17969C119.018 3.9349 119.385 3.74219 119.812 3.60156C120.24 3.46094 120.719 3.39062 121.25 3.39062C121.885 3.39062 122.448 3.4974 122.938 3.71094C123.432 3.92448 123.82 4.2474 124.102 4.67969C124.388 5.10677 124.531 5.64323 124.531 6.28906V10.0469C124.531 10.4323 124.557 10.7786 124.609 11.0859C124.667 11.388 124.747 11.651 124.852 11.875V12H122.922C122.833 11.7969 122.763 11.5391 122.711 11.2266C122.664 10.9089 122.641 10.6016 122.641 10.3047ZM122.914 6.85938L122.93 8.02344H121.578C121.229 8.02344 120.922 8.05729 120.656 8.125C120.391 8.1875 120.169 8.28125 119.992 8.40625C119.815 8.53125 119.682 8.68229 119.594 8.85938C119.505 9.03646 119.461 9.23698 119.461 9.46094C119.461 9.6849 119.513 9.89062 119.617 10.0781C119.721 10.2604 119.872 10.4036 120.07 10.5078C120.273 10.612 120.518 10.6641 120.805 10.6641C121.19 10.6641 121.526 10.5859 121.812 10.4297C122.104 10.2682 122.333 10.0729 122.5 9.84375C122.667 9.60938 122.755 9.38802 122.766 9.17969L123.375 10.0156C123.312 10.2292 123.206 10.4583 123.055 10.7031C122.904 10.9479 122.706 11.1823 122.461 11.4062C122.221 11.625 121.932 11.8047 121.594 11.9453C121.26 12.0859 120.875 12.1562 120.438 12.1562C119.885 12.1562 119.393 12.0469 118.961 11.8281C118.529 11.6042 118.19 11.3047 117.945 10.9297C117.701 10.5495 117.578 10.1198 117.578 9.64062C117.578 9.19271 117.661 8.79688 117.828 8.45312C118 8.10417 118.25 7.8125 118.578 7.57812C118.911 7.34375 119.318 7.16667 119.797 7.04688C120.276 6.92188 120.823 6.85938 121.438 6.85938H122.914ZM131.914 3.54688H133.625V11.7656C133.625 12.526 133.464 13.1719 133.141 13.7031C132.818 14.2344 132.367 14.638 131.789 14.9141C131.211 15.1953 130.542 15.3359 129.781 15.3359C129.458 15.3359 129.099 15.2891 128.703 15.1953C128.312 15.1016 127.932 14.9505 127.562 14.7422C127.198 14.5391 126.893 14.2708 126.648 13.9375L127.531 12.8281C127.833 13.1875 128.167 13.4505 128.531 13.6172C128.896 13.7839 129.279 13.8672 129.68 13.8672C130.112 13.8672 130.479 13.7865 130.781 13.625C131.089 13.4688 131.326 13.237 131.492 12.9297C131.659 12.6224 131.742 12.2474 131.742 11.8047V5.46094L131.914 3.54688ZM126.172 7.86719V7.70312C126.172 7.0625 126.25 6.47917 126.406 5.95312C126.562 5.42188 126.786 4.96615 127.078 4.58594C127.37 4.20052 127.724 3.90625 128.141 3.70312C128.557 3.49479 129.029 3.39062 129.555 3.39062C130.102 3.39062 130.568 3.48958 130.953 3.6875C131.344 3.88542 131.669 4.16927 131.93 4.53906C132.19 4.90365 132.393 5.34115 132.539 5.85156C132.69 6.35677 132.802 6.91927 132.875 7.53906V8.0625C132.807 8.66667 132.693 9.21875 132.531 9.71875C132.37 10.2188 132.156 10.651 131.891 11.0156C131.625 11.3802 131.297 11.6615 130.906 11.8594C130.521 12.0573 130.065 12.1562 129.539 12.1562C129.023 12.1562 128.557 12.0495 128.141 11.8359C127.729 11.6224 127.375 11.3229 127.078 10.9375C126.786 10.5521 126.562 10.099 126.406 9.57812C126.25 9.05208 126.172 8.48177 126.172 7.86719ZM128.055 7.70312V7.86719C128.055 8.2526 128.091 8.61198 128.164 8.94531C128.242 9.27865 128.359 9.57292 128.516 9.82812C128.677 10.0781 128.88 10.276 129.125 10.4219C129.375 10.5625 129.669 10.6328 130.008 10.6328C130.451 10.6328 130.812 10.5391 131.094 10.3516C131.38 10.1641 131.599 9.91146 131.75 9.59375C131.906 9.27083 132.016 8.91146 132.078 8.51562V7.10156C132.047 6.79427 131.982 6.50781 131.883 6.24219C131.789 5.97656 131.661 5.74479 131.5 5.54688C131.339 5.34375 131.135 5.1875 130.891 5.07812C130.646 4.96354 130.357 4.90625 130.023 4.90625C129.685 4.90625 129.391 4.97917 129.141 5.125C128.891 5.27083 128.685 5.47135 128.523 5.72656C128.367 5.98177 128.25 6.27865 128.172 6.61719C128.094 6.95573 128.055 7.31771 128.055 7.70312ZM137.469 5.15625V12H135.586V3.54688H137.383L137.469 5.15625ZM140.055 3.49219L140.039 5.24219C139.924 5.22135 139.799 5.20573 139.664 5.19531C139.534 5.1849 139.404 5.17969 139.273 5.17969C138.951 5.17969 138.667 5.22656 138.422 5.32031C138.177 5.40885 137.971 5.53906 137.805 5.71094C137.643 5.8776 137.518 6.08073 137.43 6.32031C137.341 6.5599 137.289 6.82812 137.273 7.125L136.844 7.15625C136.844 6.625 136.896 6.13281 137 5.67969C137.104 5.22656 137.26 4.82812 137.469 4.48438C137.682 4.14062 137.948 3.8724 138.266 3.67969C138.589 3.48698 138.961 3.39062 139.383 3.39062C139.497 3.39062 139.62 3.40104 139.75 3.42188C139.885 3.44271 139.987 3.46615 140.055 3.49219ZM145.719 10.3047V6.27344C145.719 5.97135 145.664 5.71094 145.555 5.49219C145.445 5.27344 145.279 5.10417 145.055 4.98438C144.836 4.86458 144.56 4.80469 144.227 4.80469C143.919 4.80469 143.654 4.85677 143.43 4.96094C143.206 5.0651 143.031 5.20573 142.906 5.38281C142.781 5.5599 142.719 5.76042 142.719 5.98438H140.844C140.844 5.65104 140.924 5.32812 141.086 5.01562C141.247 4.70312 141.482 4.42448 141.789 4.17969C142.096 3.9349 142.464 3.74219 142.891 3.60156C143.318 3.46094 143.797 3.39062 144.328 3.39062C144.964 3.39062 145.526 3.4974 146.016 3.71094C146.51 3.92448 146.898 4.2474 147.18 4.67969C147.466 5.10677 147.609 5.64323 147.609 6.28906V10.0469C147.609 10.4323 147.635 10.7786 147.688 11.0859C147.745 11.388 147.826 11.651 147.93 11.875V12H146C145.911 11.7969 145.841 11.5391 145.789 11.2266C145.742 10.9089 145.719 10.6016 145.719 10.3047ZM145.992 6.85938L146.008 8.02344H144.656C144.307 8.02344 144 8.05729 143.734 8.125C143.469 8.1875 143.247 8.28125 143.07 8.40625C142.893 8.53125 142.76 8.68229 142.672 8.85938C142.583 9.03646 142.539 9.23698 142.539 9.46094C142.539 9.6849 142.591 9.89062 142.695 10.0781C142.799 10.2604 142.951 10.4036 143.148 10.5078C143.352 10.612 143.596 10.6641 143.883 10.6641C144.268 10.6641 144.604 10.5859 144.891 10.4297C145.182 10.2682 145.411 10.0729 145.578 9.84375C145.745 9.60938 145.833 9.38802 145.844 9.17969L146.453 10.0156C146.391 10.2292 146.284 10.4583 146.133 10.7031C145.982 10.9479 145.784 11.1823 145.539 11.4062C145.299 11.625 145.01 11.8047 144.672 11.9453C144.339 12.0859 143.953 12.1562 143.516 12.1562C142.964 12.1562 142.471 12.0469 142.039 11.8281C141.607 11.6042 141.268 11.3047 141.023 10.9297C140.779 10.5495 140.656 10.1198 140.656 9.64062C140.656 9.19271 140.74 8.79688 140.906 8.45312C141.078 8.10417 141.328 7.8125 141.656 7.57812C141.99 7.34375 142.396 7.16667 142.875 7.04688C143.354 6.92188 143.901 6.85938 144.516 6.85938H145.992ZM151.461 5.26562V12H149.578V3.54688H151.352L151.461 5.26562ZM151.156 7.46094L150.516 7.45312C150.516 6.86979 150.589 6.33073 150.734 5.83594C150.88 5.34115 151.094 4.91146 151.375 4.54688C151.656 4.17708 152.005 3.89323 152.422 3.69531C152.844 3.49219 153.331 3.39062 153.883 3.39062C154.268 3.39062 154.62 3.44792 154.938 3.5625C155.26 3.67188 155.539 3.84635 155.773 4.08594C156.013 4.32552 156.195 4.63281 156.32 5.00781C156.451 5.38281 156.516 5.83594 156.516 6.36719V12H154.633V6.53125C154.633 6.11979 154.57 5.79688 154.445 5.5625C154.326 5.32812 154.151 5.16146 153.922 5.0625C153.698 4.95833 153.43 4.90625 153.117 4.90625C152.763 4.90625 152.461 4.97396 152.211 5.10938C151.966 5.24479 151.766 5.42969 151.609 5.66406C151.453 5.89844 151.339 6.16927 151.266 6.47656C151.193 6.78385 151.156 7.11198 151.156 7.46094ZM156.398 6.96094L155.516 7.15625C155.516 6.64583 155.586 6.16406 155.727 5.71094C155.872 5.2526 156.083 4.85156 156.359 4.50781C156.641 4.15885 156.987 3.88542 157.398 3.6875C157.81 3.48958 158.281 3.39062 158.812 3.39062C159.245 3.39062 159.63 3.45052 159.969 3.57031C160.312 3.6849 160.604 3.86719 160.844 4.11719C161.083 4.36719 161.266 4.69271 161.391 5.09375C161.516 5.48958 161.578 5.96875 161.578 6.53125V12H159.688V6.52344C159.688 6.09635 159.625 5.76562 159.5 5.53125C159.38 5.29688 159.208 5.13542 158.984 5.04688C158.76 4.95312 158.492 4.90625 158.18 4.90625C157.888 4.90625 157.63 4.96094 157.406 5.07031C157.188 5.17448 157.003 5.32292 156.852 5.51562C156.701 5.70312 156.586 5.91927 156.508 6.16406C156.435 6.40885 156.398 6.67448 156.398 6.96094ZM205.508 0.625V12H203.547V0.625H205.508ZM210.148 5.60156V7.15625H205.008V5.60156H210.148ZM210.797 0.625V2.1875H205.008V0.625H210.797ZM216.672 10.3047V6.27344C216.672 5.97135 216.617 5.71094 216.508 5.49219C216.398 5.27344 216.232 5.10417 216.008 4.98438C215.789 4.86458 215.513 4.80469 215.18 4.80469C214.872 4.80469 214.607 4.85677 214.383 4.96094C214.159 5.0651 213.984 5.20573 213.859 5.38281C213.734 5.5599 213.672 5.76042 213.672 5.98438H211.797C211.797 5.65104 211.878 5.32812 212.039 5.01562C212.201 4.70312 212.435 4.42448 212.742 4.17969C213.049 3.9349 213.417 3.74219 213.844 3.60156C214.271 3.46094 214.75 3.39062 215.281 3.39062C215.917 3.39062 216.479 3.4974 216.969 3.71094C217.464 3.92448 217.852 4.2474 218.133 4.67969C218.419 5.10677 218.562 5.64323 218.562 6.28906V10.0469C218.562 10.4323 218.589 10.7786 218.641 11.0859C218.698 11.388 218.779 11.651 218.883 11.875V12H216.953C216.865 11.7969 216.794 11.5391 216.742 11.2266C216.695 10.9089 216.672 10.6016 216.672 10.3047ZM216.945 6.85938L216.961 8.02344H215.609C215.26 8.02344 214.953 8.05729 214.688 8.125C214.422 8.1875 214.201 8.28125 214.023 8.40625C213.846 8.53125 213.714 8.68229 213.625 8.85938C213.536 9.03646 213.492 9.23698 213.492 9.46094C213.492 9.6849 213.544 9.89062 213.648 10.0781C213.753 10.2604 213.904 10.4036 214.102 10.5078C214.305 10.612 214.549 10.6641 214.836 10.6641C215.221 10.6641 215.557 10.5859 215.844 10.4297C216.135 10.2682 216.365 10.0729 216.531 9.84375C216.698 9.60938 216.786 9.38802 216.797 9.17969L217.406 10.0156C217.344 10.2292 217.237 10.4583 217.086 10.7031C216.935 10.9479 216.737 11.1823 216.492 11.4062C216.253 11.625 215.964 11.8047 215.625 11.9453C215.292 12.0859 214.906 12.1562 214.469 12.1562C213.917 12.1562 213.424 12.0469 212.992 11.8281C212.56 11.6042 212.221 11.3047 211.977 10.9297C211.732 10.5495 211.609 10.1198 211.609 9.64062C211.609 9.19271 211.693 8.79688 211.859 8.45312C212.031 8.10417 212.281 7.8125 212.609 7.57812C212.943 7.34375 213.349 7.16667 213.828 7.04688C214.307 6.92188 214.854 6.85938 215.469 6.85938H216.945ZM223.984 10.6562C224.292 10.6562 224.568 10.5964 224.812 10.4766C225.062 10.3516 225.263 10.1797 225.414 9.96094C225.57 9.74219 225.656 9.48958 225.672 9.20312H227.445C227.435 9.75 227.273 10.2474 226.961 10.6953C226.648 11.1432 226.234 11.5 225.719 11.7656C225.203 12.026 224.633 12.1562 224.008 12.1562C223.362 12.1562 222.799 12.0469 222.32 11.8281C221.841 11.6042 221.443 11.2969 221.125 10.9062C220.807 10.5156 220.568 10.0651 220.406 9.55469C220.25 9.04427 220.172 8.4974 220.172 7.91406V7.64062C220.172 7.05729 220.25 6.51042 220.406 6C220.568 5.48438 220.807 5.03125 221.125 4.64062C221.443 4.25 221.841 3.94531 222.32 3.72656C222.799 3.5026 223.359 3.39062 224 3.39062C224.677 3.39062 225.271 3.52604 225.781 3.79688C226.292 4.0625 226.693 4.4349 226.984 4.91406C227.281 5.38802 227.435 5.9401 227.445 6.57031H225.672C225.656 6.25781 225.578 5.97656 225.438 5.72656C225.302 5.47135 225.109 5.26823 224.859 5.11719C224.615 4.96615 224.32 4.89062 223.977 4.89062C223.596 4.89062 223.281 4.96875 223.031 5.125C222.781 5.27604 222.586 5.48438 222.445 5.75C222.305 6.01042 222.203 6.30469 222.141 6.63281C222.083 6.95573 222.055 7.29167 222.055 7.64062V7.91406C222.055 8.26302 222.083 8.60156 222.141 8.92969C222.198 9.25781 222.297 9.55208 222.438 9.8125C222.583 10.0677 222.781 10.2734 223.031 10.4297C223.281 10.5807 223.599 10.6562 223.984 10.6562ZM232.617 12.1562C231.992 12.1562 231.427 12.0547 230.922 11.8516C230.422 11.6432 229.995 11.3542 229.641 10.9844C229.292 10.6146 229.023 10.1797 228.836 9.67969C228.648 9.17969 228.555 8.64062 228.555 8.0625V7.75C228.555 7.08854 228.651 6.48958 228.844 5.95312C229.036 5.41667 229.305 4.95833 229.648 4.57812C229.992 4.19271 230.398 3.89844 230.867 3.69531C231.336 3.49219 231.844 3.39062 232.391 3.39062C232.995 3.39062 233.523 3.49219 233.977 3.69531C234.43 3.89844 234.805 4.1849 235.102 4.55469C235.404 4.91927 235.628 5.35417 235.773 5.85938C235.924 6.36458 236 6.92188 236 7.53125V8.33594H229.469V6.98438H234.141V6.83594C234.13 6.4974 234.062 6.17969 233.938 5.88281C233.818 5.58594 233.633 5.34635 233.383 5.16406C233.133 4.98177 232.799 4.89062 232.383 4.89062C232.07 4.89062 231.792 4.95833 231.547 5.09375C231.307 5.22396 231.107 5.41406 230.945 5.66406C230.784 5.91406 230.659 6.21615 230.57 6.57031C230.487 6.91927 230.445 7.3125 230.445 7.75V8.0625C230.445 8.43229 230.495 8.77604 230.594 9.09375C230.698 9.40625 230.849 9.67969 231.047 9.91406C231.245 10.1484 231.484 10.3333 231.766 10.4688C232.047 10.599 232.367 10.6641 232.727 10.6641C233.18 10.6641 233.583 10.5729 233.938 10.3906C234.292 10.2083 234.599 9.95052 234.859 9.61719L235.852 10.5781C235.669 10.8438 235.432 11.099 235.141 11.3438C234.849 11.5833 234.492 11.7786 234.07 11.9297C233.654 12.0807 233.169 12.1562 232.617 12.1562ZM237.477 0H239.359V10.1953L239.18 12H237.477V0ZM244.875 7.69531V7.85938C244.875 8.48438 244.805 9.0599 244.664 9.58594C244.529 10.1068 244.32 10.5599 244.039 10.9453C243.763 11.3307 243.419 11.6302 243.008 11.8438C242.602 12.0521 242.13 12.1562 241.594 12.1562C241.068 12.1562 240.609 12.0573 240.219 11.8594C239.828 11.6615 239.5 11.3802 239.234 11.0156C238.974 10.651 238.763 10.2161 238.602 9.71094C238.44 9.20573 238.326 8.64844 238.258 8.03906V7.51562C238.326 6.90104 238.44 6.34375 238.602 5.84375C238.763 5.33854 238.974 4.90365 239.234 4.53906C239.5 4.16927 239.826 3.88542 240.211 3.6875C240.602 3.48958 241.057 3.39062 241.578 3.39062C242.12 3.39062 242.596 3.49479 243.008 3.70312C243.424 3.91146 243.771 4.20833 244.047 4.59375C244.323 4.97396 244.529 5.42708 244.664 5.95312C244.805 6.47917 244.875 7.0599 244.875 7.69531ZM242.992 7.85938V7.69531C242.992 7.3151 242.961 6.95833 242.898 6.625C242.836 6.28646 242.732 5.98958 242.586 5.73438C242.445 5.47917 242.253 5.27865 242.008 5.13281C241.768 4.98177 241.469 4.90625 241.109 4.90625C240.776 4.90625 240.49 4.96354 240.25 5.07812C240.01 5.19271 239.81 5.34896 239.648 5.54688C239.487 5.74479 239.359 5.97396 239.266 6.23438C239.177 6.49479 239.117 6.77604 239.086 7.07812V8.49219C239.133 8.88281 239.232 9.24219 239.383 9.57031C239.539 9.89323 239.758 10.1536 240.039 10.3516C240.32 10.5443 240.682 10.6406 241.125 10.6406C241.474 10.6406 241.768 10.5703 242.008 10.4297C242.247 10.2891 242.438 10.0938 242.578 9.84375C242.724 9.58854 242.828 9.29167 242.891 8.95312C242.958 8.61458 242.992 8.25 242.992 7.85938ZM246.109 7.86719V7.6875C246.109 7.07812 246.198 6.51302 246.375 5.99219C246.552 5.46615 246.807 5.01042 247.141 4.625C247.479 4.23438 247.891 3.93229 248.375 3.71875C248.865 3.5 249.417 3.39062 250.031 3.39062C250.651 3.39062 251.203 3.5 251.688 3.71875C252.177 3.93229 252.591 4.23438 252.93 4.625C253.268 5.01042 253.526 5.46615 253.703 5.99219C253.88 6.51302 253.969 7.07812 253.969 7.6875V7.86719C253.969 8.47656 253.88 9.04167 253.703 9.5625C253.526 10.0833 253.268 10.5391 252.93 10.9297C252.591 11.3151 252.18 11.6172 251.695 11.8359C251.211 12.0495 250.661 12.1562 250.047 12.1562C249.427 12.1562 248.872 12.0495 248.383 11.8359C247.898 11.6172 247.487 11.3151 247.148 10.9297C246.81 10.5391 246.552 10.0833 246.375 9.5625C246.198 9.04167 246.109 8.47656 246.109 7.86719ZM247.992 7.6875V7.86719C247.992 8.2474 248.031 8.60677 248.109 8.94531C248.188 9.28385 248.31 9.58073 248.477 9.83594C248.643 10.0911 248.857 10.2917 249.117 10.4375C249.378 10.5833 249.688 10.6562 250.047 10.6562C250.396 10.6562 250.698 10.5833 250.953 10.4375C251.214 10.2917 251.427 10.0911 251.594 9.83594C251.76 9.58073 251.883 9.28385 251.961 8.94531C252.044 8.60677 252.086 8.2474 252.086 7.86719V7.6875C252.086 7.3125 252.044 6.95833 251.961 6.625C251.883 6.28646 251.758 5.98698 251.586 5.72656C251.419 5.46615 251.206 5.26302 250.945 5.11719C250.69 4.96615 250.385 4.89062 250.031 4.89062C249.677 4.89062 249.37 4.96615 249.109 5.11719C248.854 5.26302 248.643 5.46615 248.477 5.72656C248.31 5.98698 248.188 6.28646 248.109 6.625C248.031 6.95833 247.992 7.3125 247.992 7.6875ZM255.188 7.86719V7.6875C255.188 7.07812 255.276 6.51302 255.453 5.99219C255.63 5.46615 255.885 5.01042 256.219 4.625C256.557 4.23438 256.969 3.93229 257.453 3.71875C257.943 3.5 258.495 3.39062 259.109 3.39062C259.729 3.39062 260.281 3.5 260.766 3.71875C261.255 3.93229 261.669 4.23438 262.008 4.625C262.346 5.01042 262.604 5.46615 262.781 5.99219C262.958 6.51302 263.047 7.07812 263.047 7.6875V7.86719C263.047 8.47656 262.958 9.04167 262.781 9.5625C262.604 10.0833 262.346 10.5391 262.008 10.9297C261.669 11.3151 261.258 11.6172 260.773 11.8359C260.289 12.0495 259.74 12.1562 259.125 12.1562C258.505 12.1562 257.951 12.0495 257.461 11.8359C256.977 11.6172 256.565 11.3151 256.227 10.9297C255.888 10.5391 255.63 10.0833 255.453 9.5625C255.276 9.04167 255.188 8.47656 255.188 7.86719ZM257.07 7.6875V7.86719C257.07 8.2474 257.109 8.60677 257.188 8.94531C257.266 9.28385 257.388 9.58073 257.555 9.83594C257.721 10.0911 257.935 10.2917 258.195 10.4375C258.456 10.5833 258.766 10.6562 259.125 10.6562C259.474 10.6562 259.776 10.5833 260.031 10.4375C260.292 10.2917 260.505 10.0911 260.672 9.83594C260.839 9.58073 260.961 9.28385 261.039 8.94531C261.122 8.60677 261.164 8.2474 261.164 7.86719V7.6875C261.164 7.3125 261.122 6.95833 261.039 6.625C260.961 6.28646 260.836 5.98698 260.664 5.72656C260.497 5.46615 260.284 5.26302 260.023 5.11719C259.768 4.96615 259.464 4.89062 259.109 4.89062C258.755 4.89062 258.448 4.96615 258.188 5.11719C257.932 5.26302 257.721 5.46615 257.555 5.72656C257.388 5.98698 257.266 6.28646 257.188 6.625C257.109 6.95833 257.07 7.3125 257.07 7.6875ZM266.523 0V12H264.633V0H266.523ZM271.773 3.54688L268.094 7.625L266.078 9.6875L265.586 8.09375L267.109 6.21094L269.5 3.54688H271.773ZM269.906 12L267.164 8.03125L268.352 6.71094L272.086 12H269.906Z" fill="#00194A"/>
</svg>
