<svg width="322" height="18" viewBox="0 0 322 18" fill="none" xmlns="http://www.w3.org/2000/svg">
<path d="M8.5166 8.75293H9.83496C9.83496 9.67285 9.57129 10.3643 9.04395 10.8271C8.52246 11.2842 7.81055 11.5127 6.9082 11.5127C6.28125 11.5127 5.73926 11.3691 5.28223 11.082C4.83105 10.7949 4.47949 10.3965 4.22754 9.88672C3.98145 9.37695 3.8584 8.78516 3.8584 8.11133V7.08301C3.8584 6.40918 3.98145 5.81738 4.22754 5.30762C4.47949 4.79785 4.83105 4.39941 5.28223 4.1123C5.73926 3.8252 6.28125 3.68164 6.9082 3.68164C7.81055 3.68164 8.52539 3.91309 9.05273 4.37598C9.58008 4.83301 9.84375 5.52148 9.84375 6.44141H8.52539C8.52539 5.86719 8.3877 5.45703 8.1123 5.21094C7.84277 4.95898 7.44141 4.83301 6.9082 4.83301C6.52734 4.83301 6.20508 4.92969 5.94141 5.12305C5.68359 5.31055 5.4873 5.57422 5.35254 5.91406C5.22363 6.25391 5.15918 6.64062 5.15918 7.07422V8.11133C5.15918 8.55078 5.22363 8.94043 5.35254 9.28027C5.4873 9.62012 5.68359 9.88672 5.94141 10.0801C6.20508 10.2676 6.52734 10.3613 6.9082 10.3613C7.44141 10.3613 7.84277 10.2383 8.1123 9.99219C8.38184 9.74609 8.5166 9.33301 8.5166 8.75293ZM1.81934 7.59277C1.81934 8.37207 1.9541 9.09863 2.22363 9.77246C2.49316 10.4404 2.86523 11.0264 3.33984 11.5303C3.82031 12.0283 4.37402 12.418 5.00098 12.6992C5.63379 12.9746 6.31055 13.1123 7.03125 13.1123C7.74609 13.1123 8.41699 12.9746 9.04395 12.6992C9.6709 12.418 10.2217 12.0283 10.6963 11.5303C11.1768 11.0264 11.5518 10.4404 11.8213 9.77246C12.0908 9.09863 12.2256 8.37207 12.2256 7.59277C12.2256 6.81348 12.0908 6.08984 11.8213 5.42188C11.5518 4.75391 11.1768 4.1709 10.6963 3.67285C10.2217 3.1748 9.6709 2.78809 9.04395 2.5127C8.41699 2.23145 7.74609 2.09082 7.03125 2.09082C6.31055 2.09082 5.63379 2.23145 5.00098 2.5127C4.37402 2.78809 3.82031 3.1748 3.33984 3.67285C2.86523 4.1709 2.49316 4.75391 2.22363 5.42188C1.9541 6.08984 1.81934 6.81348 1.81934 7.59277ZM0.791016 7.59277C0.791016 6.66113 0.952148 5.79688 1.27441 5C1.59668 4.20312 2.04492 3.50879 2.61914 2.91699C3.19336 2.31934 3.85547 1.85645 4.60547 1.52832C5.36133 1.19434 6.16992 1.02734 7.03125 1.02734C7.89258 1.02734 8.69824 1.19434 9.44824 1.52832C10.2041 1.85645 10.8662 2.31934 11.4346 2.91699C12.0088 3.50879 12.457 4.20312 12.7793 5C13.1016 5.79688 13.2627 6.66113 13.2627 7.59277C13.2627 8.52441 13.1016 9.38867 12.7793 10.1855C12.457 10.9824 12.0088 11.6826 11.4346 12.2861C10.8662 12.8838 10.2041 13.3496 9.44824 13.6836C8.69824 14.0176 7.89258 14.1846 7.03125 14.1846C6.16992 14.1846 5.36133 14.0176 4.60547 13.6836C3.85547 13.3496 3.19336 12.8838 2.61914 12.2861C2.04492 11.6826 1.59668 10.9824 1.27441 10.1855C0.952148 9.38867 0.791016 8.52441 0.791016 7.59277ZM24.7764 1.20312V14H22.5879V1.20312H24.7764ZM28.793 1.20312V2.96094H18.6064V1.20312H28.793ZM33.6182 14.1758C32.915 14.1758 32.2793 14.0615 31.7109 13.833C31.1484 13.5986 30.668 13.2734 30.2695 12.8574C29.877 12.4414 29.5752 11.9521 29.3643 11.3896C29.1533 10.8271 29.0479 10.2207 29.0479 9.57031V9.21875C29.0479 8.47461 29.1562 7.80078 29.373 7.19727C29.5898 6.59375 29.8916 6.07812 30.2783 5.65039C30.665 5.2168 31.1221 4.88574 31.6494 4.65723C32.1768 4.42871 32.748 4.31445 33.3633 4.31445C34.043 4.31445 34.6377 4.42871 35.1475 4.65723C35.6572 4.88574 36.0791 5.20801 36.4131 5.62402C36.7529 6.03418 37.0049 6.52344 37.1689 7.0918C37.3389 7.66016 37.4238 8.28711 37.4238 8.97266V9.87793H30.0762V8.35742H35.332V8.19043C35.3203 7.80957 35.2441 7.45215 35.1035 7.11816C34.9688 6.78418 34.7607 6.51465 34.4795 6.30957C34.1982 6.10449 33.8232 6.00195 33.3545 6.00195C33.0029 6.00195 32.6895 6.07812 32.4141 6.23047C32.1445 6.37695 31.9189 6.59082 31.7373 6.87207C31.5557 7.15332 31.415 7.49316 31.3154 7.8916C31.2217 8.28418 31.1748 8.72656 31.1748 9.21875V9.57031C31.1748 9.98633 31.2305 10.373 31.3418 10.7305C31.459 11.082 31.6289 11.3896 31.8516 11.6533C32.0742 11.917 32.3438 12.125 32.6602 12.2773C32.9766 12.4238 33.3369 12.4971 33.7412 12.4971C34.251 12.4971 34.7051 12.3945 35.1035 12.1895C35.502 11.9844 35.8477 11.6943 36.1406 11.3193L37.2568 12.4004C37.0518 12.6992 36.7852 12.9863 36.457 13.2617C36.1289 13.5312 35.7275 13.751 35.2529 13.9209C34.7842 14.0908 34.2393 14.1758 33.6182 14.1758ZM41.3438 0.5V14H39.2168V0.5H41.3438ZM47.8564 14.1758C47.1533 14.1758 46.5176 14.0615 45.9492 13.833C45.3867 13.5986 44.9062 13.2734 44.5078 12.8574C44.1152 12.4414 43.8135 11.9521 43.6025 11.3896C43.3916 10.8271 43.2861 10.2207 43.2861 9.57031V9.21875C43.2861 8.47461 43.3945 7.80078 43.6113 7.19727C43.8281 6.59375 44.1299 6.07812 44.5166 5.65039C44.9033 5.2168 45.3604 4.88574 45.8877 4.65723C46.415 4.42871 46.9863 4.31445 47.6016 4.31445C48.2812 4.31445 48.876 4.42871 49.3857 4.65723C49.8955 4.88574 50.3174 5.20801 50.6514 5.62402C50.9912 6.03418 51.2432 6.52344 51.4072 7.0918C51.5771 7.66016 51.6621 8.28711 51.6621 8.97266V9.87793H44.3145V8.35742H49.5703V8.19043C49.5586 7.80957 49.4824 7.45215 49.3418 7.11816C49.207 6.78418 48.999 6.51465 48.7178 6.30957C48.4365 6.10449 48.0615 6.00195 47.5928 6.00195C47.2412 6.00195 46.9277 6.07812 46.6523 6.23047C46.3828 6.37695 46.1572 6.59082 45.9756 6.87207C45.7939 7.15332 45.6533 7.49316 45.5537 7.8916C45.46 8.28418 45.4131 8.72656 45.4131 9.21875V9.57031C45.4131 9.98633 45.4688 10.373 45.5801 10.7305C45.6973 11.082 45.8672 11.3896 46.0898 11.6533C46.3125 11.917 46.582 12.125 46.8984 12.2773C47.2148 12.4238 47.5752 12.4971 47.9795 12.4971C48.4893 12.4971 48.9434 12.3945 49.3418 12.1895C49.7402 11.9844 50.0859 11.6943 50.3789 11.3193L51.4951 12.4004C51.29 12.6992 51.0234 12.9863 50.6953 13.2617C50.3672 13.5312 49.9658 13.751 49.4912 13.9209C49.0225 14.0908 48.4775 14.1758 47.8564 14.1758ZM59.4053 4.49023H61.3301V13.7363C61.3301 14.5918 61.1484 15.3184 60.7852 15.916C60.4219 16.5137 59.915 16.9678 59.2646 17.2783C58.6143 17.5947 57.8613 17.7529 57.0059 17.7529C56.6426 17.7529 56.2383 17.7002 55.793 17.5947C55.3535 17.4893 54.9258 17.3193 54.5098 17.085C54.0996 16.8564 53.7568 16.5547 53.4814 16.1797L54.4746 14.9316C54.8145 15.3359 55.1895 15.6318 55.5996 15.8193C56.0098 16.0068 56.4404 16.1006 56.8916 16.1006C57.3779 16.1006 57.791 16.0098 58.1309 15.8281C58.4766 15.6523 58.7432 15.3916 58.9307 15.0459C59.1182 14.7002 59.2119 14.2783 59.2119 13.7803V6.64355L59.4053 4.49023ZM52.9453 9.35059V9.16602C52.9453 8.44531 53.0332 7.78906 53.209 7.19727C53.3848 6.59961 53.6367 6.08691 53.9648 5.65918C54.293 5.22559 54.6914 4.89453 55.1602 4.66602C55.6289 4.43164 56.1592 4.31445 56.751 4.31445C57.3662 4.31445 57.8906 4.42578 58.3242 4.64844C58.7637 4.87109 59.1299 5.19043 59.4229 5.60645C59.7158 6.0166 59.9443 6.50879 60.1084 7.08301C60.2783 7.65137 60.4043 8.28418 60.4863 8.98145V9.57031C60.4102 10.25 60.2812 10.8711 60.0996 11.4336C59.918 11.9961 59.6777 12.4824 59.3789 12.8926C59.0801 13.3027 58.7109 13.6191 58.2715 13.8418C57.8379 14.0645 57.3252 14.1758 56.7334 14.1758C56.1533 14.1758 55.6289 14.0557 55.1602 13.8154C54.6973 13.5752 54.2988 13.2383 53.9648 12.8047C53.6367 12.3711 53.3848 11.8613 53.209 11.2754C53.0332 10.6836 52.9453 10.042 52.9453 9.35059ZM55.0635 9.16602V9.35059C55.0635 9.78418 55.1045 10.1885 55.1865 10.5635C55.2744 10.9385 55.4062 11.2695 55.582 11.5566C55.7637 11.8379 55.9922 12.0605 56.2676 12.2246C56.5488 12.3828 56.8799 12.4619 57.2607 12.4619C57.7588 12.4619 58.166 12.3564 58.4824 12.1455C58.8047 11.9346 59.0508 11.6504 59.2207 11.293C59.3965 10.9297 59.5195 10.5254 59.5898 10.0801V8.48926C59.5547 8.14355 59.4814 7.82129 59.3701 7.52246C59.2646 7.22363 59.1211 6.96289 58.9395 6.74023C58.7578 6.51172 58.5293 6.33594 58.2539 6.21289C57.9785 6.08398 57.6533 6.01953 57.2783 6.01953C56.8975 6.01953 56.5664 6.10156 56.2852 6.26562C56.0039 6.42969 55.7725 6.65527 55.5908 6.94238C55.415 7.22949 55.2832 7.56348 55.1953 7.94434C55.1074 8.3252 55.0635 8.73242 55.0635 9.16602ZM65.6543 6.30078V14H63.5361V4.49023H65.5576L65.6543 6.30078ZM68.5635 4.42871L68.5459 6.39746C68.417 6.37402 68.2764 6.35645 68.124 6.34473C67.9775 6.33301 67.8311 6.32715 67.6846 6.32715C67.3213 6.32715 67.002 6.37988 66.7266 6.48535C66.4512 6.58496 66.2197 6.73145 66.0322 6.9248C65.8506 7.1123 65.71 7.34082 65.6104 7.61035C65.5107 7.87988 65.4521 8.18164 65.4346 8.51562L64.9512 8.55078C64.9512 7.95312 65.0098 7.39941 65.127 6.88965C65.2441 6.37988 65.4199 5.93164 65.6543 5.54492C65.8945 5.1582 66.1934 4.85645 66.5508 4.63965C66.9141 4.42285 67.333 4.31445 67.8076 4.31445C67.9365 4.31445 68.0742 4.32617 68.2207 4.34961C68.373 4.37305 68.4873 4.39941 68.5635 4.42871ZM74.9355 12.0928V7.55762C74.9355 7.21777 74.874 6.9248 74.751 6.67871C74.6279 6.43262 74.4404 6.24219 74.1885 6.10742C73.9424 5.97266 73.6318 5.90527 73.2568 5.90527C72.9111 5.90527 72.6123 5.96387 72.3604 6.08105C72.1084 6.19824 71.9121 6.35645 71.7715 6.55566C71.6309 6.75488 71.5605 6.98047 71.5605 7.23242H69.4512C69.4512 6.85742 69.542 6.49414 69.7236 6.14258C69.9053 5.79102 70.1689 5.47754 70.5146 5.20215C70.8604 4.92676 71.2734 4.70996 71.7539 4.55176C72.2344 4.39355 72.7734 4.31445 73.3711 4.31445C74.0859 4.31445 74.7188 4.43457 75.2695 4.6748C75.8262 4.91504 76.2627 5.27832 76.5791 5.76465C76.9014 6.24512 77.0625 6.84863 77.0625 7.5752V11.8027C77.0625 12.2363 77.0918 12.626 77.1504 12.9717C77.2148 13.3115 77.3057 13.6074 77.4229 13.8594V14H75.252C75.1523 13.7715 75.0732 13.4814 75.0146 13.1299C74.9619 12.7725 74.9355 12.4268 74.9355 12.0928ZM75.2432 8.2168L75.2607 9.52637H73.7402C73.3477 9.52637 73.002 9.56445 72.7031 9.64062C72.4043 9.71094 72.1553 9.81641 71.9561 9.95703C71.7568 10.0977 71.6074 10.2676 71.5078 10.4668C71.4082 10.666 71.3584 10.8916 71.3584 11.1436C71.3584 11.3955 71.417 11.627 71.5342 11.8379C71.6514 12.043 71.8213 12.2041 72.0439 12.3213C72.2725 12.4385 72.5479 12.4971 72.8701 12.4971C73.3037 12.4971 73.6816 12.4092 74.0039 12.2334C74.332 12.0518 74.5898 11.832 74.7773 11.5742C74.9648 11.3105 75.0645 11.0615 75.0762 10.8271L75.7617 11.7676C75.6914 12.0078 75.5713 12.2656 75.4014 12.541C75.2314 12.8164 75.0088 13.0801 74.7334 13.332C74.4639 13.5781 74.1387 13.7803 73.7578 13.9385C73.3828 14.0967 72.9492 14.1758 72.457 14.1758C71.8359 14.1758 71.2822 14.0527 70.7959 13.8066C70.3096 13.5547 69.9287 13.2178 69.6533 12.7959C69.3779 12.3682 69.2402 11.8848 69.2402 11.3457C69.2402 10.8418 69.334 10.3965 69.5215 10.0098C69.7148 9.61719 69.9961 9.28906 70.3652 9.02539C70.7402 8.76172 71.1973 8.5625 71.7363 8.42773C72.2754 8.28711 72.8906 8.2168 73.582 8.2168H75.2432ZM81.4043 6.31836V17.6562H79.2861V4.49023H81.2373L81.4043 6.31836ZM87.6006 9.15723V9.3418C87.6006 10.0332 87.5186 10.6748 87.3545 11.2666C87.1963 11.8525 86.959 12.3652 86.6426 12.8047C86.332 13.2383 85.9482 13.5752 85.4912 13.8154C85.0342 14.0557 84.5068 14.1758 83.9092 14.1758C83.3174 14.1758 82.7988 14.0674 82.3535 13.8506C81.9141 13.6279 81.542 13.3145 81.2373 12.9102C80.9326 12.5059 80.6865 12.0312 80.499 11.4863C80.3174 10.9355 80.1885 10.332 80.1123 9.67578V8.96387C80.1885 8.2666 80.3174 7.63379 80.499 7.06543C80.6865 6.49707 80.9326 6.00781 81.2373 5.59766C81.542 5.1875 81.9141 4.87109 82.3535 4.64844C82.793 4.42578 83.3057 4.31445 83.8916 4.31445C84.4893 4.31445 85.0195 4.43164 85.4824 4.66602C85.9453 4.89453 86.335 5.22266 86.6514 5.65039C86.9678 6.07227 87.2051 6.58203 87.3633 7.17969C87.5215 7.77148 87.6006 8.43066 87.6006 9.15723ZM85.4824 9.3418V9.15723C85.4824 8.71777 85.4414 8.31055 85.3594 7.93555C85.2773 7.55469 85.1484 7.2207 84.9727 6.93359C84.7969 6.64648 84.5713 6.42383 84.2959 6.26562C84.0264 6.10156 83.7012 6.01953 83.3203 6.01953C82.9453 6.01953 82.623 6.08398 82.3535 6.21289C82.084 6.33594 81.8584 6.50879 81.6768 6.73145C81.4951 6.9541 81.3545 7.21484 81.2549 7.51367C81.1553 7.80664 81.085 8.12598 81.0439 8.47168V10.1768C81.1143 10.5986 81.2344 10.9854 81.4043 11.3369C81.5742 11.6885 81.8145 11.9697 82.125 12.1807C82.4414 12.3857 82.8457 12.4883 83.3379 12.4883C83.7188 12.4883 84.0439 12.4062 84.3135 12.2422C84.583 12.0781 84.8027 11.8525 84.9727 11.5654C85.1484 11.2725 85.2773 10.9355 85.3594 10.5547C85.4414 10.1738 85.4824 9.76953 85.4824 9.3418ZM91.4941 0.5V14H89.3848V0.5H91.4941ZM91.125 8.89355L90.4395 8.88477C90.4453 8.22852 90.5361 7.62207 90.7119 7.06543C90.8936 6.50879 91.1455 6.02539 91.4678 5.61523C91.7959 5.19922 92.1885 4.87988 92.6455 4.65723C93.1025 4.42871 93.6094 4.31445 94.166 4.31445C94.6348 4.31445 95.0566 4.37891 95.4316 4.50781C95.8125 4.63672 96.1406 4.84473 96.416 5.13184C96.6914 5.41309 96.8994 5.78223 97.04 6.23926C97.1865 6.69043 97.2598 7.24121 97.2598 7.8916V14H95.1328V7.87402C95.1328 7.41699 95.0654 7.05371 94.9307 6.78418C94.8018 6.51465 94.6113 6.32129 94.3594 6.2041C94.1074 6.08105 93.7998 6.01953 93.4365 6.01953C93.0557 6.01953 92.7188 6.0957 92.4258 6.24805C92.1387 6.40039 91.8984 6.6084 91.7051 6.87207C91.5117 7.13574 91.3652 7.44043 91.2656 7.78613C91.1719 8.13184 91.125 8.50098 91.125 8.89355ZM99.4922 12.9453C99.4922 12.6172 99.6035 12.3418 99.8262 12.1191C100.049 11.8906 100.351 11.7764 100.731 11.7764C101.118 11.7764 101.42 11.8906 101.637 12.1191C101.859 12.3418 101.971 12.6172 101.971 12.9453C101.971 13.2734 101.859 13.5488 101.637 13.7715C101.42 13.9941 101.118 14.1055 100.731 14.1055C100.351 14.1055 100.049 13.9941 99.8262 13.7715C99.6035 13.5488 99.4922 13.2734 99.4922 12.9453ZM117.352 12.3125V14H108.773V12.5498L112.939 8.00586C113.396 7.49023 113.757 7.04492 114.021 6.66992C114.284 6.29492 114.469 5.95801 114.574 5.65918C114.686 5.35449 114.741 5.05859 114.741 4.77148C114.741 4.36719 114.665 4.0127 114.513 3.70801C114.366 3.39746 114.149 3.1543 113.862 2.97852C113.575 2.79687 113.227 2.70605 112.816 2.70605C112.342 2.70605 111.943 2.80859 111.621 3.01367C111.299 3.21875 111.056 3.50293 110.892 3.86621C110.728 4.22363 110.646 4.63379 110.646 5.09668H108.527C108.527 4.35254 108.697 3.67285 109.037 3.05762C109.377 2.43652 109.869 1.94434 110.514 1.58105C111.158 1.21191 111.935 1.02734 112.843 1.02734C113.698 1.02734 114.425 1.1709 115.022 1.45801C115.62 1.74512 116.074 2.15234 116.385 2.67969C116.701 3.20703 116.859 3.83105 116.859 4.55176C116.859 4.9502 116.795 5.3457 116.666 5.73828C116.537 6.13086 116.353 6.52344 116.112 6.91602C115.878 7.30273 115.6 7.69238 115.277 8.08496C114.955 8.47168 114.601 8.86426 114.214 9.2627L111.445 12.3125H117.352ZM127.345 6.5293V8.62109C127.345 9.62305 127.245 10.4785 127.046 11.1875C126.853 11.8906 126.571 12.4619 126.202 12.9014C125.833 13.3408 125.391 13.6631 124.875 13.8682C124.365 14.0732 123.794 14.1758 123.161 14.1758C122.657 14.1758 122.188 14.1113 121.755 13.9824C121.327 13.8535 120.94 13.6514 120.595 13.376C120.249 13.1006 119.953 12.7461 119.707 12.3125C119.467 11.873 119.279 11.3486 119.145 10.7393C119.016 10.1299 118.951 9.42383 118.951 8.62109V6.5293C118.951 5.52148 119.051 4.67188 119.25 3.98047C119.449 3.2832 119.733 2.71777 120.103 2.28418C120.472 1.84473 120.911 1.52539 121.421 1.32617C121.937 1.12695 122.511 1.02734 123.144 1.02734C123.653 1.02734 124.122 1.0918 124.55 1.2207C124.983 1.34375 125.37 1.54004 125.71 1.80957C126.056 2.0791 126.349 2.43066 126.589 2.86426C126.835 3.29199 127.022 3.81055 127.151 4.41992C127.28 5.02344 127.345 5.72656 127.345 6.5293ZM125.227 8.91992V6.21289C125.227 5.70312 125.197 5.25488 125.139 4.86816C125.08 4.47559 124.992 4.14453 124.875 3.875C124.764 3.59961 124.623 3.37695 124.453 3.20703C124.283 3.03125 124.09 2.90527 123.873 2.8291C123.656 2.74707 123.413 2.70605 123.144 2.70605C122.815 2.70605 122.522 2.77051 122.265 2.89941C122.007 3.02246 121.79 3.22168 121.614 3.49707C121.438 3.77246 121.304 4.13574 121.21 4.58691C121.122 5.03223 121.078 5.57422 121.078 6.21289V8.91992C121.078 9.43555 121.107 9.88965 121.166 10.2822C121.225 10.6748 121.312 11.0117 121.43 11.293C121.547 11.5684 121.688 11.7969 121.852 11.9785C122.021 12.1543 122.215 12.2832 122.432 12.3652C122.654 12.4473 122.897 12.4883 123.161 12.4883C123.495 12.4883 123.791 12.4238 124.049 12.2949C124.307 12.166 124.523 11.9609 124.699 11.6797C124.875 11.3926 125.007 11.0205 125.095 10.5635C125.183 10.1064 125.227 9.55859 125.227 8.91992ZM137.812 12.3125V14H129.234V12.5498L133.4 8.00586C133.857 7.49023 134.218 7.04492 134.481 6.66992C134.745 6.29492 134.93 5.95801 135.035 5.65918C135.146 5.35449 135.202 5.05859 135.202 4.77148C135.202 4.36719 135.126 4.0127 134.974 3.70801C134.827 3.39746 134.61 3.1543 134.323 2.97852C134.036 2.79687 133.688 2.70605 133.277 2.70605C132.803 2.70605 132.404 2.80859 132.082 3.01367C131.76 3.21875 131.517 3.50293 131.353 3.86621C131.188 4.22363 131.106 4.63379 131.106 5.09668H128.988C128.988 4.35254 129.158 3.67285 129.498 3.05762C129.838 2.43652 130.33 1.94434 130.975 1.58105C131.619 1.21191 132.396 1.02734 133.304 1.02734C134.159 1.02734 134.886 1.1709 135.483 1.45801C136.081 1.74512 136.535 2.15234 136.846 2.67969C137.162 3.20703 137.32 3.83105 137.32 4.55176C137.32 4.9502 137.256 5.3457 137.127 5.73828C136.998 6.13086 136.813 6.52344 136.573 6.91602C136.339 7.30273 136.061 7.69238 135.738 8.08496C135.416 8.47168 135.062 8.86426 134.675 9.2627L131.906 12.3125H137.812ZM147.806 6.5293V8.62109C147.806 9.62305 147.706 10.4785 147.507 11.1875C147.313 11.8906 147.032 12.4619 146.663 12.9014C146.294 13.3408 145.852 13.6631 145.336 13.8682C144.826 14.0732 144.255 14.1758 143.622 14.1758C143.118 14.1758 142.649 14.1113 142.216 13.9824C141.788 13.8535 141.401 13.6514 141.056 13.376C140.71 13.1006 140.414 12.7461 140.168 12.3125C139.928 11.873 139.74 11.3486 139.605 10.7393C139.477 10.1299 139.412 9.42383 139.412 8.62109V6.5293C139.412 5.52148 139.512 4.67188 139.711 3.98047C139.91 3.2832 140.194 2.71777 140.563 2.28418C140.933 1.84473 141.372 1.52539 141.882 1.32617C142.397 1.12695 142.972 1.02734 143.604 1.02734C144.114 1.02734 144.583 1.0918 145.011 1.2207C145.444 1.34375 145.831 1.54004 146.171 1.80957C146.517 2.0791 146.81 2.43066 147.05 2.86426C147.296 3.29199 147.483 3.81055 147.612 4.41992C147.741 5.02344 147.806 5.72656 147.806 6.5293ZM145.688 8.91992V6.21289C145.688 5.70312 145.658 5.25488 145.6 4.86816C145.541 4.47559 145.453 4.14453 145.336 3.875C145.225 3.59961 145.084 3.37695 144.914 3.20703C144.744 3.03125 144.551 2.90527 144.334 2.8291C144.117 2.74707 143.874 2.70605 143.604 2.70605C143.276 2.70605 142.983 2.77051 142.726 2.89941C142.468 3.02246 142.251 3.22168 142.075 3.49707C141.899 3.77246 141.765 4.13574 141.671 4.58691C141.583 5.03223 141.539 5.57422 141.539 6.21289V8.91992C141.539 9.43555 141.568 9.88965 141.627 10.2822C141.686 10.6748 141.773 11.0117 141.891 11.293C142.008 11.5684 142.148 11.7969 142.312 11.9785C142.482 12.1543 142.676 12.2832 142.893 12.3652C143.115 12.4473 143.358 12.4883 143.622 12.4883C143.956 12.4883 144.252 12.4238 144.51 12.2949C144.768 12.166 144.984 11.9609 145.16 11.6797C145.336 11.3926 145.468 11.0205 145.556 10.5635C145.644 10.1064 145.688 9.55859 145.688 8.91992ZM166.254 6.81934V8.51562H154.292V6.81934H166.254ZM177.847 2.9082L174.023 14H171.712L176.528 1.20312H178.005L177.847 2.9082ZM181.046 14L177.214 2.9082L177.047 1.20312H178.532L183.366 14H181.046ZM180.861 9.25391V11.0029H173.9V9.25391H180.861ZM186.855 0.5V14H184.729V0.5H186.855ZM191.443 0.5V14H189.316V0.5H191.443ZM200.373 6.30078V14H198.255V4.49023H200.276L200.373 6.30078ZM203.282 4.42871L203.265 6.39746C203.136 6.37402 202.995 6.35645 202.843 6.34473C202.696 6.33301 202.55 6.32715 202.403 6.32715C202.04 6.32715 201.721 6.37988 201.445 6.48535C201.17 6.58496 200.938 6.73145 200.751 6.9248C200.569 7.1123 200.429 7.34082 200.329 7.61035C200.229 7.87988 200.171 8.18164 200.153 8.51562L199.67 8.55078C199.67 7.95312 199.729 7.39941 199.846 6.88965C199.963 6.37988 200.139 5.93164 200.373 5.54492C200.613 5.1582 200.912 4.85645 201.27 4.63965C201.633 4.42285 202.052 4.31445 202.526 4.31445C202.655 4.31445 202.793 4.32617 202.939 4.34961C203.092 4.37305 203.206 4.39941 203.282 4.42871ZM206.877 4.49023V14H204.75V4.49023H206.877ZM204.609 1.99414C204.609 1.67187 204.715 1.40527 204.926 1.19434C205.143 0.977539 205.441 0.869141 205.822 0.869141C206.197 0.869141 206.493 0.977539 206.71 1.19434C206.927 1.40527 207.035 1.67187 207.035 1.99414C207.035 2.31055 206.927 2.57422 206.71 2.78516C206.493 2.99609 206.197 3.10156 205.822 3.10156C205.441 3.10156 205.143 2.99609 204.926 2.78516C204.715 2.57422 204.609 2.31055 204.609 1.99414ZM215.288 4.49023H217.213V13.7363C217.213 14.5918 217.031 15.3184 216.668 15.916C216.305 16.5137 215.798 16.9678 215.147 17.2783C214.497 17.5947 213.744 17.7529 212.889 17.7529C212.525 17.7529 212.121 17.7002 211.676 17.5947C211.236 17.4893 210.809 17.3193 210.393 17.085C209.982 16.8564 209.64 16.5547 209.364 16.1797L210.357 14.9316C210.697 15.3359 211.072 15.6318 211.482 15.8193C211.893 16.0068 212.323 16.1006 212.774 16.1006C213.261 16.1006 213.674 16.0098 214.014 15.8281C214.359 15.6523 214.626 15.3916 214.813 15.0459C215.001 14.7002 215.095 14.2783 215.095 13.7803V6.64355L215.288 4.49023ZM208.828 9.35059V9.16602C208.828 8.44531 208.916 7.78906 209.092 7.19727C209.268 6.59961 209.52 6.08691 209.848 5.65918C210.176 5.22559 210.574 4.89453 211.043 4.66602C211.512 4.43164 212.042 4.31445 212.634 4.31445C213.249 4.31445 213.773 4.42578 214.207 4.64844C214.646 4.87109 215.013 5.19043 215.306 5.60645C215.599 6.0166 215.827 6.50879 215.991 7.08301C216.161 7.65137 216.287 8.28418 216.369 8.98145V9.57031C216.293 10.25 216.164 10.8711 215.982 11.4336C215.801 11.9961 215.561 12.4824 215.262 12.8926C214.963 13.3027 214.594 13.6191 214.154 13.8418C213.721 14.0645 213.208 14.1758 212.616 14.1758C212.036 14.1758 211.512 14.0557 211.043 13.8154C210.58 13.5752 210.182 13.2383 209.848 12.8047C209.52 12.3711 209.268 11.8613 209.092 11.2754C208.916 10.6836 208.828 10.042 208.828 9.35059ZM210.946 9.16602V9.35059C210.946 9.78418 210.987 10.1885 211.069 10.5635C211.157 10.9385 211.289 11.2695 211.465 11.5566C211.646 11.8379 211.875 12.0605 212.15 12.2246C212.432 12.3828 212.763 12.4619 213.144 12.4619C213.642 12.4619 214.049 12.3564 214.365 12.1455C214.688 11.9346 214.934 11.6504 215.104 11.293C215.279 10.9297 215.402 10.5254 215.473 10.0801V8.48926C215.438 8.14355 215.364 7.82129 215.253 7.52246C215.147 7.22363 215.004 6.96289 214.822 6.74023C214.641 6.51172 214.412 6.33594 214.137 6.21289C213.861 6.08398 213.536 6.01953 213.161 6.01953C212.78 6.01953 212.449 6.10156 212.168 6.26562C211.887 6.42969 211.655 6.65527 211.474 6.94238C211.298 7.22949 211.166 7.56348 211.078 7.94434C210.99 8.3252 210.946 8.73242 210.946 9.16602ZM221.502 0.5V14H219.393V0.5H221.502ZM221.133 8.89355L220.447 8.88477C220.453 8.22852 220.544 7.62207 220.72 7.06543C220.901 6.50879 221.153 6.02539 221.476 5.61523C221.804 5.19922 222.196 4.87988 222.653 4.65723C223.11 4.42871 223.617 4.31445 224.174 4.31445C224.643 4.31445 225.064 4.37891 225.439 4.50781C225.82 4.63672 226.148 4.84473 226.424 5.13184C226.699 5.41309 226.907 5.78223 227.048 6.23926C227.194 6.69043 227.268 7.24121 227.268 7.8916V14H225.141V7.87402C225.141 7.41699 225.073 7.05371 224.938 6.78418C224.81 6.51465 224.619 6.32129 224.367 6.2041C224.115 6.08105 223.808 6.01953 223.444 6.01953C223.063 6.01953 222.727 6.0957 222.434 6.24805C222.146 6.40039 221.906 6.6084 221.713 6.87207C221.52 7.13574 221.373 7.44043 221.273 7.78613C221.18 8.13184 221.133 8.50098 221.133 8.89355ZM233.771 4.49023V6.03711H228.41V4.49023H233.771ZM229.957 2.16113H232.075V11.3721C232.075 11.665 232.116 11.8906 232.198 12.0488C232.286 12.2012 232.406 12.3037 232.559 12.3564C232.711 12.4092 232.89 12.4355 233.095 12.4355C233.241 12.4355 233.382 12.4268 233.517 12.4092C233.651 12.3916 233.76 12.374 233.842 12.3564L233.851 13.9736C233.675 14.0264 233.47 14.0732 233.235 14.1143C233.007 14.1553 232.743 14.1758 232.444 14.1758C231.958 14.1758 231.527 14.0908 231.152 13.9209C230.777 13.7451 230.484 13.4609 230.273 13.0684C230.062 12.6758 229.957 12.1543 229.957 11.5039V2.16113ZM240.741 11.4248C240.741 11.2139 240.688 11.0234 240.583 10.8535C240.478 10.6777 240.275 10.5195 239.977 10.3789C239.684 10.2383 239.25 10.1094 238.676 9.99219C238.172 9.88086 237.709 9.74902 237.287 9.59668C236.871 9.43848 236.514 9.24805 236.215 9.02539C235.916 8.80273 235.685 8.53906 235.521 8.23438C235.356 7.92969 235.274 7.57812 235.274 7.17969C235.274 6.79297 235.359 6.42676 235.529 6.08105C235.699 5.73535 235.942 5.43066 236.259 5.16699C236.575 4.90332 236.959 4.69531 237.41 4.54297C237.867 4.39063 238.377 4.31445 238.939 4.31445C239.736 4.31445 240.419 4.44922 240.987 4.71875C241.562 4.98242 242.001 5.34277 242.306 5.7998C242.61 6.25098 242.763 6.76074 242.763 7.3291H240.645C240.645 7.07715 240.58 6.84277 240.451 6.62598C240.328 6.40332 240.141 6.22461 239.889 6.08984C239.637 5.94922 239.32 5.87891 238.939 5.87891C238.576 5.87891 238.274 5.9375 238.034 6.05469C237.8 6.16602 237.624 6.3125 237.507 6.49414C237.396 6.67578 237.34 6.875 237.34 7.0918C237.34 7.25 237.369 7.39355 237.428 7.52246C237.492 7.64551 237.598 7.75977 237.744 7.86523C237.891 7.96484 238.09 8.05859 238.342 8.14648C238.6 8.23438 238.922 8.31934 239.309 8.40137C240.035 8.55371 240.659 8.75 241.181 8.99023C241.708 9.22461 242.112 9.5293 242.394 9.9043C242.675 10.2734 242.815 10.7422 242.815 11.3105C242.815 11.7324 242.725 12.1191 242.543 12.4707C242.367 12.8164 242.109 13.1182 241.77 13.376C241.43 13.6279 241.022 13.8242 240.548 13.9648C240.079 14.1055 239.552 14.1758 238.966 14.1758C238.104 14.1758 237.375 14.0234 236.777 13.7188C236.18 13.4082 235.726 13.0127 235.415 12.5322C235.11 12.0459 234.958 11.542 234.958 11.0205H237.006C237.029 11.4131 237.138 11.7266 237.331 11.9609C237.53 12.1895 237.776 12.3564 238.069 12.4619C238.368 12.5615 238.676 12.6113 238.992 12.6113C239.373 12.6113 239.692 12.5615 239.95 12.4619C240.208 12.3564 240.404 12.2158 240.539 12.04C240.674 11.8584 240.741 11.6533 240.741 11.4248ZM251.279 6.30078V14H249.161V4.49023H251.183L251.279 6.30078ZM254.188 4.42871L254.171 6.39746C254.042 6.37402 253.901 6.35645 253.749 6.34473C253.603 6.33301 253.456 6.32715 253.31 6.32715C252.946 6.32715 252.627 6.37988 252.352 6.48535C252.076 6.58496 251.845 6.73145 251.657 6.9248C251.476 7.1123 251.335 7.34082 251.235 7.61035C251.136 7.87988 251.077 8.18164 251.06 8.51562L250.576 8.55078C250.576 7.95312 250.635 7.39941 250.752 6.88965C250.869 6.37988 251.045 5.93164 251.279 5.54492C251.52 5.1582 251.818 4.85645 252.176 4.63965C252.539 4.42285 252.958 4.31445 253.433 4.31445C253.562 4.31445 253.699 4.32617 253.846 4.34961C253.998 4.37305 254.112 4.39941 254.188 4.42871ZM259.532 14.1758C258.829 14.1758 258.193 14.0615 257.625 13.833C257.062 13.5986 256.582 13.2734 256.184 12.8574C255.791 12.4414 255.489 11.9521 255.278 11.3896C255.067 10.8271 254.962 10.2207 254.962 9.57031V9.21875C254.962 8.47461 255.07 7.80078 255.287 7.19727C255.504 6.59375 255.806 6.07812 256.192 5.65039C256.579 5.2168 257.036 4.88574 257.563 4.65723C258.091 4.42871 258.662 4.31445 259.277 4.31445C259.957 4.31445 260.552 4.42871 261.062 4.65723C261.571 4.88574 261.993 5.20801 262.327 5.62402C262.667 6.03418 262.919 6.52344 263.083 7.0918C263.253 7.66016 263.338 8.28711 263.338 8.97266V9.87793H255.99V8.35742H261.246V8.19043C261.234 7.80957 261.158 7.45215 261.018 7.11816C260.883 6.78418 260.675 6.51465 260.394 6.30957C260.112 6.10449 259.737 6.00195 259.269 6.00195C258.917 6.00195 258.604 6.07812 258.328 6.23047C258.059 6.37695 257.833 6.59082 257.651 6.87207C257.47 7.15332 257.329 7.49316 257.229 7.8916C257.136 8.28418 257.089 8.72656 257.089 9.21875V9.57031C257.089 9.98633 257.145 10.373 257.256 10.7305C257.373 11.082 257.543 11.3896 257.766 11.6533C257.988 11.917 258.258 12.125 258.574 12.2773C258.891 12.4238 259.251 12.4971 259.655 12.4971C260.165 12.4971 260.619 12.3945 261.018 12.1895C261.416 11.9844 261.762 11.6943 262.055 11.3193L263.171 12.4004C262.966 12.6992 262.699 12.9863 262.371 13.2617C262.043 13.5312 261.642 13.751 261.167 13.9209C260.698 14.0908 260.153 14.1758 259.532 14.1758ZM270.325 11.4248C270.325 11.2139 270.272 11.0234 270.167 10.8535C270.062 10.6777 269.859 10.5195 269.561 10.3789C269.268 10.2383 268.834 10.1094 268.26 9.99219C267.756 9.88086 267.293 9.74902 266.871 9.59668C266.455 9.43848 266.098 9.24805 265.799 9.02539C265.5 8.80273 265.269 8.53906 265.104 8.23438C264.94 7.92969 264.858 7.57812 264.858 7.17969C264.858 6.79297 264.943 6.42676 265.113 6.08105C265.283 5.73535 265.526 5.43066 265.843 5.16699C266.159 4.90332 266.543 4.69531 266.994 4.54297C267.451 4.39063 267.961 4.31445 268.523 4.31445C269.32 4.31445 270.003 4.44922 270.571 4.71875C271.146 4.98242 271.585 5.34277 271.89 5.7998C272.194 6.25098 272.347 6.76074 272.347 7.3291H270.229C270.229 7.07715 270.164 6.84277 270.035 6.62598C269.912 6.40332 269.725 6.22461 269.473 6.08984C269.221 5.94922 268.904 5.87891 268.523 5.87891C268.16 5.87891 267.858 5.9375 267.618 6.05469C267.384 6.16602 267.208 6.3125 267.091 6.49414C266.979 6.67578 266.924 6.875 266.924 7.0918C266.924 7.25 266.953 7.39355 267.012 7.52246C267.076 7.64551 267.182 7.75977 267.328 7.86523C267.475 7.96484 267.674 8.05859 267.926 8.14648C268.184 8.23438 268.506 8.31934 268.893 8.40137C269.619 8.55371 270.243 8.75 270.765 8.99023C271.292 9.22461 271.696 9.5293 271.978 9.9043C272.259 10.2734 272.399 10.7422 272.399 11.3105C272.399 11.7324 272.309 12.1191 272.127 12.4707C271.951 12.8164 271.693 13.1182 271.354 13.376C271.014 13.6279 270.606 13.8242 270.132 13.9648C269.663 14.1055 269.136 14.1758 268.55 14.1758C267.688 14.1758 266.959 14.0234 266.361 13.7188C265.764 13.4082 265.31 13.0127 264.999 12.5322C264.694 12.0459 264.542 11.542 264.542 11.0205H266.59C266.613 11.4131 266.722 11.7266 266.915 11.9609C267.114 12.1895 267.36 12.3564 267.653 12.4619C267.952 12.5615 268.26 12.6113 268.576 12.6113C268.957 12.6113 269.276 12.5615 269.534 12.4619C269.792 12.3564 269.988 12.2158 270.123 12.04C270.258 11.8584 270.325 11.6533 270.325 11.4248ZM278.446 14.1758C277.743 14.1758 277.107 14.0615 276.539 13.833C275.977 13.5986 275.496 13.2734 275.098 12.8574C274.705 12.4414 274.403 11.9521 274.192 11.3896C273.981 10.8271 273.876 10.2207 273.876 9.57031V9.21875C273.876 8.47461 273.984 7.80078 274.201 7.19727C274.418 6.59375 274.72 6.07812 275.106 5.65039C275.493 5.2168 275.95 4.88574 276.478 4.65723C277.005 4.42871 277.576 4.31445 278.191 4.31445C278.871 4.31445 279.466 4.42871 279.976 4.65723C280.485 4.88574 280.907 5.20801 281.241 5.62402C281.581 6.03418 281.833 6.52344 281.997 7.0918C282.167 7.66016 282.252 8.28711 282.252 8.97266V9.87793H274.904V8.35742H280.16V8.19043C280.148 7.80957 280.072 7.45215 279.932 7.11816C279.797 6.78418 279.589 6.51465 279.308 6.30957C279.026 6.10449 278.651 6.00195 278.183 6.00195C277.831 6.00195 277.518 6.07812 277.242 6.23047C276.973 6.37695 276.747 6.59082 276.565 6.87207C276.384 7.15332 276.243 7.49316 276.144 7.8916C276.05 8.28418 276.003 8.72656 276.003 9.21875V9.57031C276.003 9.98633 276.059 10.373 276.17 10.7305C276.287 11.082 276.457 11.3896 276.68 11.6533C276.902 11.917 277.172 12.125 277.488 12.2773C277.805 12.4238 278.165 12.4971 278.569 12.4971C279.079 12.4971 279.533 12.3945 279.932 12.1895C280.33 11.9844 280.676 11.6943 280.969 11.3193L282.085 12.4004C281.88 12.6992 281.613 12.9863 281.285 13.2617C280.957 13.5312 280.556 13.751 280.081 13.9209C279.612 14.0908 279.067 14.1758 278.446 14.1758ZM286.031 6.30078V14H283.913V4.49023H285.935L286.031 6.30078ZM288.94 4.42871L288.923 6.39746C288.794 6.37402 288.653 6.35645 288.501 6.34473C288.354 6.33301 288.208 6.32715 288.062 6.32715C287.698 6.32715 287.379 6.37988 287.104 6.48535C286.828 6.58496 286.597 6.73145 286.409 6.9248C286.228 7.1123 286.087 7.34082 285.987 7.61035C285.888 7.87988 285.829 8.18164 285.812 8.51562L285.328 8.55078C285.328 7.95312 285.387 7.39941 285.504 6.88965C285.621 6.37988 285.797 5.93164 286.031 5.54492C286.271 5.1582 286.57 4.85645 286.928 4.63965C287.291 4.42285 287.71 4.31445 288.185 4.31445C288.313 4.31445 288.451 4.32617 288.598 4.34961C288.75 4.37305 288.864 4.39941 288.94 4.42871ZM293.52 12.3213L295.849 4.49023H298.046L294.741 14H293.37L293.52 12.3213ZM291.735 4.49023L294.108 12.3564L294.223 14H292.852L289.529 4.49023H291.735ZM303.425 14.1758C302.722 14.1758 302.086 14.0615 301.518 13.833C300.955 13.5986 300.475 13.2734 300.076 12.8574C299.684 12.4414 299.382 11.9521 299.171 11.3896C298.96 10.8271 298.854 10.2207 298.854 9.57031V9.21875C298.854 8.47461 298.963 7.80078 299.18 7.19727C299.396 6.59375 299.698 6.07812 300.085 5.65039C300.472 5.2168 300.929 4.88574 301.456 4.65723C301.983 4.42871 302.555 4.31445 303.17 4.31445C303.85 4.31445 304.444 4.42871 304.954 4.65723C305.464 4.88574 305.886 5.20801 306.22 5.62402C306.56 6.03418 306.812 6.52344 306.976 7.0918C307.146 7.66016 307.23 8.28711 307.23 8.97266V9.87793H299.883V8.35742H305.139V8.19043C305.127 7.80957 305.051 7.45215 304.91 7.11816C304.775 6.78418 304.567 6.51465 304.286 6.30957C304.005 6.10449 303.63 6.00195 303.161 6.00195C302.81 6.00195 302.496 6.07812 302.221 6.23047C301.951 6.37695 301.726 6.59082 301.544 6.87207C301.362 7.15332 301.222 7.49316 301.122 7.8916C301.028 8.28418 300.981 8.72656 300.981 9.21875V9.57031C300.981 9.98633 301.037 10.373 301.148 10.7305C301.266 11.082 301.436 11.3896 301.658 11.6533C301.881 11.917 302.15 12.125 302.467 12.2773C302.783 12.4238 303.144 12.4971 303.548 12.4971C304.058 12.4971 304.512 12.3945 304.91 12.1895C305.309 11.9844 305.654 11.6943 305.947 11.3193L307.063 12.4004C306.858 12.6992 306.592 12.9863 306.264 13.2617C305.936 13.5312 305.534 13.751 305.06 13.9209C304.591 14.0908 304.046 14.1758 303.425 14.1758ZM314.684 12.0312V0.5H316.811V14H314.886L314.684 12.0312ZM308.496 9.35059V9.16602C308.496 8.44531 308.581 7.78906 308.751 7.19727C308.921 6.59961 309.167 6.08691 309.489 5.65918C309.812 5.22559 310.204 4.89453 310.667 4.66602C311.13 4.43164 311.651 4.31445 312.231 4.31445C312.806 4.31445 313.31 4.42578 313.743 4.64844C314.177 4.87109 314.546 5.19043 314.851 5.60645C315.155 6.0166 315.398 6.50879 315.58 7.08301C315.762 7.65137 315.891 8.28418 315.967 8.98145V9.57031C315.891 10.25 315.762 10.8711 315.58 11.4336C315.398 11.9961 315.155 12.4824 314.851 12.8926C314.546 13.3027 314.174 13.6191 313.734 13.8418C313.301 14.0645 312.794 14.1758 312.214 14.1758C311.64 14.1758 311.121 14.0557 310.658 13.8154C310.201 13.5752 309.812 13.2383 309.489 12.8047C309.167 12.3711 308.921 11.8613 308.751 11.2754C308.581 10.6836 308.496 10.042 308.496 9.35059ZM310.614 9.16602V9.35059C310.614 9.78418 310.652 10.1885 310.729 10.5635C310.811 10.9385 310.937 11.2695 311.106 11.5566C311.276 11.8379 311.496 12.0605 311.766 12.2246C312.041 12.3828 312.369 12.4619 312.75 12.4619C313.23 12.4619 313.626 12.3564 313.937 12.1455C314.247 11.9346 314.49 11.6504 314.666 11.293C314.848 10.9297 314.971 10.5254 315.035 10.0801V8.48926C315 8.14355 314.927 7.82129 314.815 7.52246C314.71 7.22363 314.566 6.96289 314.385 6.74023C314.203 6.51172 313.978 6.33594 313.708 6.21289C313.444 6.08398 313.131 6.01953 312.768 6.01953C312.381 6.01953 312.053 6.10156 311.783 6.26562C311.514 6.42969 311.291 6.65527 311.115 6.94238C310.945 7.22949 310.819 7.56348 310.737 7.94434C310.655 8.3252 310.614 8.73242 310.614 9.16602ZM319.113 12.9453C319.113 12.6172 319.225 12.3418 319.447 12.1191C319.67 11.8906 319.972 11.7764 320.353 11.7764C320.739 11.7764 321.041 11.8906 321.258 12.1191C321.48 12.3418 321.592 12.6172 321.592 12.9453C321.592 13.2734 321.48 13.5488 321.258 13.7715C321.041 13.9941 320.739 14.1055 320.353 14.1055C319.972 14.1055 319.67 13.9941 319.447 13.7715C319.225 13.5488 319.113 13.2734 319.113 12.9453Z" fill="#00194A"/>
</svg>
